<svg width="342" height="342" viewBox="0 0 342 342" fill="none" xmlns="http://www.w3.org/2000/svg">
<rect width="342" height="342" fill="#A4D44C"/>
<path d="M243.333 85C254.012 85 263.155 88.8024 270.76 96.4072C278.364 104.012 282.167 113.154 282.167 123.833C282.167 130.791 280.427 137.223 276.948 143.129C273.469 149.035 268.737 153.767 262.75 157.327V184.37C257.434 182.828 251.814 182 246 182C212.863 182 186 208.863 186 242C186 248.179 186.934 254.141 188.669 259.75H126.833C121.494 259.75 116.922 257.848 113.12 254.046C109.318 250.244 107.417 245.672 107.417 240.333V157.327C101.43 153.767 96.6966 149.035 93.2178 143.129C89.739 137.223 88 130.791 88 123.833C88.0001 113.154 91.8024 104.012 99.4072 96.4072C107.012 88.8024 116.154 85.0001 126.833 85H243.333Z" fill="white" fill-opacity="0.5"/>
<path d="M211.333 85C222.012 85 231.155 88.8024 238.76 96.4072C246.364 104.012 250.167 113.154 250.167 123.833C250.167 130.791 248.427 137.223 244.948 143.129C241.469 149.035 236.737 153.767 230.75 157.327V183.955C204.999 190.702 186 214.133 186 242C186 248.179 186.934 254.141 188.669 259.75H94.833C89.4936 259.75 84.9225 257.848 81.1201 254.046C77.3179 250.244 75.417 245.672 75.417 240.333V157.327C69.4302 153.767 64.6966 149.035 61.2178 143.129C57.739 137.223 56 130.791 56 123.833C56.0001 113.154 59.8024 104.012 67.4072 96.4072C75.012 88.8024 84.154 85.0001 94.833 85H211.333Z" fill="white"/>
<path d="M255 233H279V251H255V275H237V251H213V233H237V209H255V233Z" fill="white"/>
</svg>
